<mxfile host="app.diagrams.net" agent="Mozilla/5.0 (Windows NT 10.0; Win64; x64) AppleWebKit/537.36 (KHTML, like Gecko) Chrome/140.0.0.0 Safari/537.36" version="28.2.4" pages="3">
  <diagram id="FZimzOWbiY0pmrnXrLaN" name="DFD контекстная">
    <mxGraphModel dx="2066" dy="2272" grid="1" gridSize="10" guides="1" tooltips="1" connect="1" arrows="1" fold="1" page="1" pageScale="1" pageWidth="827" pageHeight="1169" math="0" shadow="0">
      <root>
        <mxCell id="0" />
        <mxCell id="1" parent="0" />
        <mxCell id="komNeLyyzliTDDAAMzvB-3" value="Умное устройство" style="html=1;dashed=0;whitespace=wrap;" parent="1" vertex="1">
          <mxGeometry x="340" y="-290" width="160" height="60" as="geometry" />
        </mxCell>
        <mxCell id="komNeLyyzliTDDAAMzvB-5" value="Пользователь" style="html=1;dashed=0;whitespace=wrap;" parent="1" vertex="1">
          <mxGeometry x="235" y="-760" width="370" height="50" as="geometry" />
        </mxCell>
        <mxCell id="rhUK0AfXt017CsrgmApv-1" value="0" style="swimlane;childLayout=stackLayout;horizontal=1;startSize=30;horizontalStack=0;rounded=1;fontSize=14;fontStyle=0;strokeWidth=1;resizeParent=0;resizeLast=1;shadow=0;dashed=0;align=center;fillColor=#FFFFFF;" parent="1" vertex="1">
          <mxGeometry x="339" y="-505" width="150" height="110" as="geometry" />
        </mxCell>
        <mxCell id="rhUK0AfXt017CsrgmApv-2" value="Приложение&#xa; &quot;Stets Home&quot;" style="align=center;strokeColor=none;fillColor=none;spacingLeft=4;fontSize=12;verticalAlign=middle;resizable=0;rotatable=0;part=1;" parent="rhUK0AfXt017CsrgmApv-1" vertex="1">
          <mxGeometry y="30" width="150" height="80" as="geometry" />
        </mxCell>
        <mxCell id="pviV9AjFVj2nf8EpT2ay-2" value="" style="endArrow=classic;html=1;rounded=0;entryX=0.75;entryY=0;entryDx=0;entryDy=0;exitX=0.803;exitY=1.035;exitDx=0;exitDy=0;exitPerimeter=0;" parent="1" source="rhUK0AfXt017CsrgmApv-2" target="komNeLyyzliTDDAAMzvB-3" edge="1">
          <mxGeometry width="50" height="50" relative="1" as="geometry">
            <mxPoint x="460" y="-390" as="sourcePoint" />
            <mxPoint x="50.59999999999991" y="-638.48" as="targetPoint" />
          </mxGeometry>
        </mxCell>
        <mxCell id="3mB53GuWAl7AhL4KbTE2-3" value="Управляющая&lt;br&gt;команда" style="edgeLabel;html=1;align=center;verticalAlign=middle;resizable=0;points=[];" parent="pviV9AjFVj2nf8EpT2ay-2" vertex="1" connectable="0">
          <mxGeometry x="0.3012" relative="1" as="geometry">
            <mxPoint as="offset" />
          </mxGeometry>
        </mxCell>
        <mxCell id="pviV9AjFVj2nf8EpT2ay-5" value="" style="endArrow=classic;html=1;rounded=0;exitX=0.301;exitY=-0.017;exitDx=0;exitDy=0;exitPerimeter=0;entryX=0.328;entryY=0.995;entryDx=0;entryDy=0;entryPerimeter=0;" parent="1" source="komNeLyyzliTDDAAMzvB-3" target="rhUK0AfXt017CsrgmApv-2" edge="1">
          <mxGeometry width="50" height="50" relative="1" as="geometry">
            <mxPoint x="120" y="-500" as="sourcePoint" />
            <mxPoint x="390" y="-400" as="targetPoint" />
          </mxGeometry>
        </mxCell>
        <mxCell id="3mB53GuWAl7AhL4KbTE2-2" value="Статус&lt;br&gt;устройства" style="edgeLabel;html=1;align=center;verticalAlign=middle;resizable=0;points=[];" parent="pviV9AjFVj2nf8EpT2ay-5" vertex="1" connectable="0">
          <mxGeometry x="0.3251" y="-1" relative="1" as="geometry">
            <mxPoint y="34" as="offset" />
          </mxGeometry>
        </mxCell>
        <mxCell id="3mB53GuWAl7AhL4KbTE2-4" value="" style="endArrow=classic;html=1;rounded=0;exitX=0.5;exitY=0;exitDx=0;exitDy=0;entryX=0.483;entryY=1.004;entryDx=0;entryDy=0;entryPerimeter=0;" parent="1" source="rhUK0AfXt017CsrgmApv-1" target="komNeLyyzliTDDAAMzvB-5" edge="1">
          <mxGeometry width="50" height="50" relative="1" as="geometry">
            <mxPoint x="414" y="-510" as="sourcePoint" />
            <mxPoint x="410" y="-710" as="targetPoint" />
          </mxGeometry>
        </mxCell>
        <mxCell id="3mB53GuWAl7AhL4KbTE2-5" value="Статусы &lt;br&gt;личного кабинета, &lt;br&gt;дома, комнат, &lt;br&gt;устройств, &lt;br&gt;сценариев" style="edgeLabel;html=1;align=center;verticalAlign=middle;resizable=0;points=[];" parent="3mB53GuWAl7AhL4KbTE2-4" vertex="1" connectable="0">
          <mxGeometry x="-0.1953" y="-1" relative="1" as="geometry">
            <mxPoint x="-1" y="-63" as="offset" />
          </mxGeometry>
        </mxCell>
        <mxCell id="FZvRXunp55Qrim1fApkG-1" value="" style="endArrow=classic;html=1;rounded=0;exitX=0.021;exitY=1.02;exitDx=0;exitDy=0;exitPerimeter=0;entryX=0.077;entryY=0;entryDx=0;entryDy=0;entryPerimeter=0;" parent="1" source="komNeLyyzliTDDAAMzvB-5" target="rhUK0AfXt017CsrgmApv-1" edge="1">
          <mxGeometry width="50" height="50" relative="1" as="geometry">
            <mxPoint x="560" y="-530" as="sourcePoint" />
            <mxPoint x="350" y="-510" as="targetPoint" />
          </mxGeometry>
        </mxCell>
        <mxCell id="FZvRXunp55Qrim1fApkG-6" value="Данные&lt;br&gt;пользователя" style="edgeLabel;html=1;align=center;verticalAlign=middle;resizable=0;points=[];" parent="FZvRXunp55Qrim1fApkG-1" vertex="1" connectable="0">
          <mxGeometry x="-0.6124" y="-1" relative="1" as="geometry">
            <mxPoint x="37" y="99" as="offset" />
          </mxGeometry>
        </mxCell>
        <mxCell id="FZvRXunp55Qrim1fApkG-2" value="" style="endArrow=classic;html=1;rounded=0;exitX=0.196;exitY=1.068;exitDx=0;exitDy=0;exitPerimeter=0;entryX=0.307;entryY=0.007;entryDx=0;entryDy=0;entryPerimeter=0;" parent="1" source="komNeLyyzliTDDAAMzvB-5" target="rhUK0AfXt017CsrgmApv-1" edge="1">
          <mxGeometry width="50" height="50" relative="1" as="geometry">
            <mxPoint x="560" y="-530" as="sourcePoint" />
            <mxPoint x="610" y="-580" as="targetPoint" />
          </mxGeometry>
        </mxCell>
        <mxCell id="kPIIuUhpnjaa0JvCIMD1-1" value="Данные&lt;br&gt;дома" style="edgeLabel;html=1;align=center;verticalAlign=middle;resizable=0;points=[];" parent="FZvRXunp55Qrim1fApkG-2" vertex="1" connectable="0">
          <mxGeometry x="-0.3423" relative="1" as="geometry">
            <mxPoint x="27" y="70" as="offset" />
          </mxGeometry>
        </mxCell>
        <mxCell id="FZvRXunp55Qrim1fApkG-3" value="" style="endArrow=classic;html=1;rounded=0;exitX=0.669;exitY=1.036;exitDx=0;exitDy=0;exitPerimeter=0;entryX=0.68;entryY=0;entryDx=0;entryDy=0;entryPerimeter=0;" parent="1" source="komNeLyyzliTDDAAMzvB-5" target="rhUK0AfXt017CsrgmApv-1" edge="1">
          <mxGeometry width="50" height="50" relative="1" as="geometry">
            <mxPoint x="560" y="-530" as="sourcePoint" />
            <mxPoint x="610" y="-580" as="targetPoint" />
          </mxGeometry>
        </mxCell>
        <mxCell id="kPIIuUhpnjaa0JvCIMD1-2" value="Данные&amp;nbsp;&lt;br&gt;комнат" style="edgeLabel;html=1;align=center;verticalAlign=middle;resizable=0;points=[];" parent="FZvRXunp55Qrim1fApkG-3" vertex="1" connectable="0">
          <mxGeometry x="-0.7444" y="-2" relative="1" as="geometry">
            <mxPoint x="-25" y="112" as="offset" />
          </mxGeometry>
        </mxCell>
        <mxCell id="FZvRXunp55Qrim1fApkG-4" value="" style="endArrow=classic;html=1;rounded=0;exitX=0.803;exitY=0.988;exitDx=0;exitDy=0;exitPerimeter=0;entryX=0.813;entryY=0;entryDx=0;entryDy=0;entryPerimeter=0;" parent="1" source="komNeLyyzliTDDAAMzvB-5" target="rhUK0AfXt017CsrgmApv-1" edge="1">
          <mxGeometry width="50" height="50" relative="1" as="geometry">
            <mxPoint x="560" y="-530" as="sourcePoint" />
            <mxPoint x="480" y="-510" as="targetPoint" />
          </mxGeometry>
        </mxCell>
        <mxCell id="kPIIuUhpnjaa0JvCIMD1-3" value="Данные&lt;br&gt;устройств,&amp;nbsp;&lt;br&gt;команды" style="edgeLabel;html=1;align=center;verticalAlign=middle;resizable=0;points=[];" parent="FZvRXunp55Qrim1fApkG-4" vertex="1" connectable="0">
          <mxGeometry x="-0.3912" y="2" relative="1" as="geometry">
            <mxPoint y="8" as="offset" />
          </mxGeometry>
        </mxCell>
        <mxCell id="FZvRXunp55Qrim1fApkG-5" value="" style="endArrow=classic;html=1;rounded=0;exitX=0.981;exitY=0.988;exitDx=0;exitDy=0;exitPerimeter=0;entryX=0.936;entryY=-0.015;entryDx=0;entryDy=0;entryPerimeter=0;" parent="1" source="komNeLyyzliTDDAAMzvB-5" target="rhUK0AfXt017CsrgmApv-1" edge="1">
          <mxGeometry width="50" height="50" relative="1" as="geometry">
            <mxPoint x="560" y="-530" as="sourcePoint" />
            <mxPoint x="490" y="-500" as="targetPoint" />
          </mxGeometry>
        </mxCell>
        <mxCell id="kPIIuUhpnjaa0JvCIMD1-4" value="Данные&lt;br&gt;сценария" style="edgeLabel;html=1;align=center;verticalAlign=middle;resizable=0;points=[];" parent="FZvRXunp55Qrim1fApkG-5" vertex="1" connectable="0">
          <mxGeometry x="0.152" y="1" relative="1" as="geometry">
            <mxPoint x="-10" y="23" as="offset" />
          </mxGeometry>
        </mxCell>
      </root>
    </mxGraphModel>
  </diagram>
  <diagram id="5hfhekeH1kYWlCb4wukP" name="DFD логическая">
    <mxGraphModel dx="2066" dy="2272" grid="1" gridSize="10" guides="1" tooltips="1" connect="1" arrows="1" fold="1" page="1" pageScale="1" pageWidth="827" pageHeight="1169" math="0" shadow="0">
      <root>
        <mxCell id="0" />
        <mxCell id="1" parent="0" />
        <mxCell id="TyFQIvKSNbhwDLeUT2OL-1" value="1" style="swimlane;childLayout=stackLayout;horizontal=1;startSize=30;horizontalStack=0;rounded=1;fontSize=14;fontStyle=0;strokeWidth=1;resizeParent=0;resizeLast=1;shadow=0;dashed=0;align=center;fillColor=#FFFFFF;" parent="1" vertex="1">
          <mxGeometry x="200" y="-530" width="150" height="110" as="geometry" />
        </mxCell>
        <mxCell id="TyFQIvKSNbhwDLeUT2OL-2" value="Пользоваться &#xa;личным кабинетом" style="align=center;strokeColor=none;fillColor=none;spacingLeft=4;fontSize=12;verticalAlign=middle;resizable=0;rotatable=0;part=1;" parent="TyFQIvKSNbhwDLeUT2OL-1" vertex="1">
          <mxGeometry y="30" width="150" height="80" as="geometry" />
        </mxCell>
        <mxCell id="jfRJq12P8PdNFq7zpwv4-1" value="2" style="swimlane;childLayout=stackLayout;horizontal=1;startSize=30;horizontalStack=0;rounded=1;fontSize=14;fontStyle=0;strokeWidth=1;resizeParent=0;resizeLast=1;shadow=0;dashed=0;align=center;fillColor=#FFFFFF;" parent="1" vertex="1">
          <mxGeometry x="414" y="-530" width="150" height="110" as="geometry" />
        </mxCell>
        <mxCell id="jfRJq12P8PdNFq7zpwv4-2" value="Управлять домом" style="align=center;strokeColor=none;fillColor=none;spacingLeft=4;fontSize=12;verticalAlign=middle;resizable=0;rotatable=0;part=1;" parent="jfRJq12P8PdNFq7zpwv4-1" vertex="1">
          <mxGeometry y="30" width="150" height="80" as="geometry" />
        </mxCell>
        <mxCell id="_O_enDlZsjK4YdfOdfHm-34" value="D1" style="html=1;dashed=0;whitespace=wrap;shape=mxgraph.dfd.dataStoreID;align=left;spacingLeft=3;points=[[0,0],[0.5,0],[1,0],[0,0.5],[1,0.5],[0,1],[0.5,1],[1,1]];fontSize=10;" parent="1" vertex="1">
          <mxGeometry x="190" y="-275" width="100" height="30" as="geometry" />
        </mxCell>
        <mxCell id="_O_enDlZsjK4YdfOdfHm-36" value="&lt;span style=&quot;font-size: 10px;&quot;&gt;Пользователи&lt;/span&gt;" style="text;html=1;strokeColor=none;fillColor=none;align=left;verticalAlign=middle;whiteSpace=wrap;rounded=0;" parent="1" vertex="1">
          <mxGeometry x="231" y="-270" width="108" height="20" as="geometry" />
        </mxCell>
        <mxCell id="RgIGIiX9YDgX1I-IBLyZ-1" value="" style="edgeStyle=elbowEdgeStyle;rounded=0;orthogonalLoop=1;jettySize=auto;elbow=vertical;html=1;" parent="1" source="_O_enDlZsjK4YdfOdfHm-40" target="_O_enDlZsjK4YdfOdfHm-41" edge="1">
          <mxGeometry relative="1" as="geometry" />
        </mxCell>
        <mxCell id="_O_enDlZsjK4YdfOdfHm-40" value="D2" style="html=1;dashed=0;whitespace=wrap;shape=mxgraph.dfd.dataStoreID;align=left;spacingLeft=3;points=[[0,0],[0.5,0],[1,0],[0,0.5],[1,0.5],[0,1],[0.5,1],[1,1]];fontSize=10;" parent="1" vertex="1">
          <mxGeometry x="414" y="-275" width="100" height="30" as="geometry" />
        </mxCell>
        <mxCell id="_O_enDlZsjK4YdfOdfHm-41" value="&lt;span style=&quot;font-size: 10px;&quot;&gt;Дома&lt;/span&gt;" style="text;html=1;strokeColor=none;fillColor=none;align=left;verticalAlign=middle;whiteSpace=wrap;rounded=0;" parent="1" vertex="1">
          <mxGeometry x="450" y="-270" width="108" height="20" as="geometry" />
        </mxCell>
        <mxCell id="_O_enDlZsjK4YdfOdfHm-44" value="D4" style="html=1;dashed=0;whitespace=wrap;shape=mxgraph.dfd.dataStoreID;align=left;spacingLeft=3;points=[[0,0],[0.5,0],[1,0],[0,0.5],[1,0.5],[0,1],[0.5,1],[1,1]];fontSize=10;" parent="1" vertex="1">
          <mxGeometry x="870" y="-275" width="100" height="30" as="geometry" />
        </mxCell>
        <mxCell id="_O_enDlZsjK4YdfOdfHm-45" value="&lt;span style=&quot;font-size: 10px;&quot;&gt;Устройства&lt;/span&gt;" style="text;html=1;strokeColor=none;fillColor=none;align=left;verticalAlign=middle;whiteSpace=wrap;rounded=0;" parent="1" vertex="1">
          <mxGeometry x="890" y="-270" width="108" height="20" as="geometry" />
        </mxCell>
        <mxCell id="yHjOUtp3m47Egw6OyIrf-1" value="Пользователь" style="html=1;dashed=0;whitespace=wrap;" parent="1" vertex="1">
          <mxGeometry x="200" y="-790" width="1120" height="50" as="geometry" />
        </mxCell>
        <mxCell id="yHjOUtp3m47Egw6OyIrf-2" value="" style="endArrow=classic;html=1;rounded=0;entryX=0.25;entryY=0;entryDx=0;entryDy=0;exitX=0.032;exitY=1.08;exitDx=0;exitDy=0;exitPerimeter=0;" parent="1" source="yHjOUtp3m47Egw6OyIrf-1" target="TyFQIvKSNbhwDLeUT2OL-1" edge="1">
          <mxGeometry width="50" height="50" relative="1" as="geometry">
            <mxPoint x="430" y="-740" as="sourcePoint" />
            <mxPoint x="470" y="-480" as="targetPoint" />
          </mxGeometry>
        </mxCell>
        <mxCell id="-zyXWMOmQ7czmRFtADtZ-13" value="Данные&amp;nbsp;&lt;br&gt;пользователя" style="edgeLabel;html=1;align=center;verticalAlign=middle;resizable=0;points=[];" parent="yHjOUtp3m47Egw6OyIrf-2" vertex="1" connectable="0">
          <mxGeometry x="-0.0991" y="1" relative="1" as="geometry">
            <mxPoint x="2" y="-37" as="offset" />
          </mxGeometry>
        </mxCell>
        <mxCell id="yHjOUtp3m47Egw6OyIrf-3" value="" style="endArrow=classic;html=1;rounded=0;entryX=0.101;entryY=1;entryDx=0;entryDy=0;entryPerimeter=0;exitX=0.75;exitY=0;exitDx=0;exitDy=0;" parent="1" source="TyFQIvKSNbhwDLeUT2OL-1" target="yHjOUtp3m47Egw6OyIrf-1" edge="1">
          <mxGeometry width="50" height="50" relative="1" as="geometry">
            <mxPoint x="470" y="-540" as="sourcePoint" />
            <mxPoint x="470" y="-640" as="targetPoint" />
          </mxGeometry>
        </mxCell>
        <mxCell id="-zyXWMOmQ7czmRFtADtZ-14" value="Статус &lt;br&gt;регистрации /&lt;br&gt;&amp;nbsp;авторизации /&lt;br&gt;&amp;nbsp;обновления &lt;br&gt;данных /&lt;br&gt;&amp;nbsp;восстановления &lt;br&gt;пароля&amp;nbsp;" style="edgeLabel;html=1;align=center;verticalAlign=middle;resizable=0;points=[];" parent="yHjOUtp3m47Egw6OyIrf-3" vertex="1" connectable="0">
          <mxGeometry x="0.1787" y="3" relative="1" as="geometry">
            <mxPoint y="34" as="offset" />
          </mxGeometry>
        </mxCell>
        <mxCell id="u_nZLA6dXxaw6uER51Nz-1" value="4" style="swimlane;childLayout=stackLayout;horizontal=1;startSize=30;horizontalStack=0;rounded=1;fontSize=14;fontStyle=0;strokeWidth=1;resizeParent=0;resizeLast=1;shadow=0;dashed=0;align=center;fillColor=#FFFFFF;" parent="1" vertex="1">
          <mxGeometry x="900" y="-530" width="150" height="110" as="geometry" />
        </mxCell>
        <mxCell id="u_nZLA6dXxaw6uER51Nz-2" value="Управлять устройствами" style="align=center;strokeColor=none;fillColor=none;spacingLeft=4;fontSize=12;verticalAlign=middle;resizable=0;rotatable=0;part=1;" parent="u_nZLA6dXxaw6uER51Nz-1" vertex="1">
          <mxGeometry y="30" width="150" height="80" as="geometry" />
        </mxCell>
        <mxCell id="u_nZLA6dXxaw6uER51Nz-3" value="5" style="swimlane;childLayout=stackLayout;horizontal=1;startSize=30;horizontalStack=0;rounded=1;fontSize=14;fontStyle=0;strokeWidth=1;resizeParent=0;resizeLast=1;shadow=0;dashed=0;align=center;fillColor=#FFFFFF;" parent="1" vertex="1">
          <mxGeometry x="1168" y="-530" width="150" height="110" as="geometry" />
        </mxCell>
        <mxCell id="u_nZLA6dXxaw6uER51Nz-4" value="Использовать сценарии" style="align=center;strokeColor=none;fillColor=none;spacingLeft=4;fontSize=12;verticalAlign=middle;resizable=0;rotatable=0;part=1;" parent="u_nZLA6dXxaw6uER51Nz-3" vertex="1">
          <mxGeometry y="30" width="150" height="80" as="geometry" />
        </mxCell>
        <mxCell id="gAAorZAZAL3vWiOyB-Mq-1" value="" style="endArrow=classic;html=1;rounded=0;entryX=0.209;entryY=-0.045;entryDx=0;entryDy=0;entryPerimeter=0;exitX=0.218;exitY=0.96;exitDx=0;exitDy=0;exitPerimeter=0;" parent="1" target="jfRJq12P8PdNFq7zpwv4-1" edge="1" source="yHjOUtp3m47Egw6OyIrf-1">
          <mxGeometry width="50" height="50" relative="1" as="geometry">
            <mxPoint x="600" y="-740" as="sourcePoint" />
            <mxPoint x="940" y="-630" as="targetPoint" />
          </mxGeometry>
        </mxCell>
        <mxCell id="RgIGIiX9YDgX1I-IBLyZ-3" value="Данные &lt;br&gt;дома" style="edgeLabel;html=1;align=center;verticalAlign=middle;resizable=0;points=[];" parent="gAAorZAZAL3vWiOyB-Mq-1" vertex="1" connectable="0">
          <mxGeometry x="0.1445" y="-3" relative="1" as="geometry">
            <mxPoint y="-6" as="offset" />
          </mxGeometry>
        </mxCell>
        <mxCell id="gAAorZAZAL3vWiOyB-Mq-3" value="" style="endArrow=classic;html=1;rounded=0;exitX=0.63;exitY=-0.03;exitDx=0;exitDy=0;exitPerimeter=0;entryX=0.275;entryY=0.96;entryDx=0;entryDy=0;entryPerimeter=0;" parent="1" source="jfRJq12P8PdNFq7zpwv4-1" target="yHjOUtp3m47Egw6OyIrf-1" edge="1">
          <mxGeometry width="50" height="50" relative="1" as="geometry">
            <mxPoint x="665" y="-546.3199999999998" as="sourcePoint" />
            <mxPoint x="665" y="-740" as="targetPoint" />
          </mxGeometry>
        </mxCell>
        <mxCell id="RgIGIiX9YDgX1I-IBLyZ-4" value="Статусы &lt;br&gt;дома" style="edgeLabel;html=1;align=center;verticalAlign=middle;resizable=0;points=[];" parent="gAAorZAZAL3vWiOyB-Mq-3" vertex="1" connectable="0">
          <mxGeometry x="0.3796" y="-1" relative="1" as="geometry">
            <mxPoint x="-5" y="47" as="offset" />
          </mxGeometry>
        </mxCell>
        <mxCell id="gAAorZAZAL3vWiOyB-Mq-5" value="" style="endArrow=classic;html=1;rounded=0;entryX=0.25;entryY=0;entryDx=0;entryDy=0;exitX=0.658;exitY=1.08;exitDx=0;exitDy=0;exitPerimeter=0;" parent="1" source="yHjOUtp3m47Egw6OyIrf-1" target="u_nZLA6dXxaw6uER51Nz-1" edge="1">
          <mxGeometry width="50" height="50" relative="1" as="geometry">
            <mxPoint x="782" y="-740" as="sourcePoint" />
            <mxPoint x="783.3499999999999" y="-544.95" as="targetPoint" />
          </mxGeometry>
        </mxCell>
        <mxCell id="-zyXWMOmQ7czmRFtADtZ-12" value="Данные&lt;br&gt;устройств, &lt;br&gt;управляющие &lt;br&gt;команды" style="edgeLabel;html=1;align=center;verticalAlign=middle;resizable=0;points=[];" parent="gAAorZAZAL3vWiOyB-Mq-5" vertex="1" connectable="0">
          <mxGeometry x="-0.28" y="1" relative="1" as="geometry">
            <mxPoint y="42" as="offset" />
          </mxGeometry>
        </mxCell>
        <mxCell id="gAAorZAZAL3vWiOyB-Mq-8" value="" style="endArrow=classic;html=1;rounded=0;exitX=0.75;exitY=0;exitDx=0;exitDy=0;entryX=0.728;entryY=1.06;entryDx=0;entryDy=0;entryPerimeter=0;" parent="1" source="u_nZLA6dXxaw6uER51Nz-1" target="yHjOUtp3m47Egw6OyIrf-1" edge="1">
          <mxGeometry width="50" height="50" relative="1" as="geometry">
            <mxPoint x="854.5000000000005" y="-543" as="sourcePoint" />
            <mxPoint x="852.0000000000005" y="-740" as="targetPoint" />
          </mxGeometry>
        </mxCell>
        <mxCell id="-zyXWMOmQ7czmRFtADtZ-11" value="Статус &lt;br&gt;устройства" style="edgeLabel;html=1;align=center;verticalAlign=middle;resizable=0;points=[];" parent="gAAorZAZAL3vWiOyB-Mq-8" vertex="1" connectable="0">
          <mxGeometry x="-0.4757" y="1" relative="1" as="geometry">
            <mxPoint x="8" y="-46" as="offset" />
          </mxGeometry>
        </mxCell>
        <mxCell id="gAAorZAZAL3vWiOyB-Mq-10" value="" style="endArrow=classic;html=1;rounded=0;entryX=0.25;entryY=0;entryDx=0;entryDy=0;exitX=0.898;exitY=1.04;exitDx=0;exitDy=0;exitPerimeter=0;" parent="1" source="yHjOUtp3m47Egw6OyIrf-1" target="u_nZLA6dXxaw6uER51Nz-3" edge="1">
          <mxGeometry width="50" height="50" relative="1" as="geometry">
            <mxPoint x="960.0000000000005" y="-740" as="sourcePoint" />
            <mxPoint x="961.3499999999999" y="-544.95" as="targetPoint" />
          </mxGeometry>
        </mxCell>
        <mxCell id="-zyXWMOmQ7czmRFtADtZ-9" value="Данные&lt;br&gt;Сценария" style="edgeLabel;html=1;align=center;verticalAlign=middle;resizable=0;points=[];" parent="gAAorZAZAL3vWiOyB-Mq-10" vertex="1" connectable="0">
          <mxGeometry x="-0.3042" y="2" relative="1" as="geometry">
            <mxPoint y="26" as="offset" />
          </mxGeometry>
        </mxCell>
        <mxCell id="s9JWuUlm9TfW3Cb926ho-1" value="D5" style="html=1;dashed=0;whitespace=wrap;shape=mxgraph.dfd.dataStoreID;align=left;spacingLeft=3;points=[[0,0],[0.5,0],[1,0],[0,0.5],[1,0.5],[0,1],[0.5,1],[1,1]];fontSize=10;" parent="1" vertex="1">
          <mxGeometry x="1180" y="-275" width="100" height="30" as="geometry" />
        </mxCell>
        <mxCell id="s9JWuUlm9TfW3Cb926ho-2" value="&lt;span style=&quot;font-size: 10px;&quot;&gt;Сценарии&lt;/span&gt;" style="text;html=1;strokeColor=none;fillColor=none;align=left;verticalAlign=middle;whiteSpace=wrap;rounded=0;" parent="1" vertex="1">
          <mxGeometry x="1220" y="-270" width="108" height="20" as="geometry" />
        </mxCell>
        <mxCell id="s9JWuUlm9TfW3Cb926ho-9" value="" style="endArrow=classic;html=1;rounded=0;entryX=0.5;entryY=1;entryDx=0;entryDy=0;exitX=0.87;exitY=-0.04;exitDx=0;exitDy=0;exitPerimeter=0;" parent="1" source="_O_enDlZsjK4YdfOdfHm-34" target="TyFQIvKSNbhwDLeUT2OL-2" edge="1">
          <mxGeometry width="50" height="50" relative="1" as="geometry">
            <mxPoint x="424.5" y="-277.22" as="sourcePoint" />
            <mxPoint x="561.5000000000005" y="-546.24" as="targetPoint" />
          </mxGeometry>
        </mxCell>
        <mxCell id="-zyXWMOmQ7czmRFtADtZ-17" value="Статус&amp;nbsp;&lt;br&gt;авторизации" style="edgeLabel;html=1;align=center;verticalAlign=middle;resizable=0;points=[];" parent="s9JWuUlm9TfW3Cb926ho-9" vertex="1" connectable="0">
          <mxGeometry x="-0.3653" y="2" relative="1" as="geometry">
            <mxPoint as="offset" />
          </mxGeometry>
        </mxCell>
        <mxCell id="XoZZwqtEYvSuaSKo8Zv_-1" value="Умное устройство" style="html=1;dashed=0;whitespace=wrap;" parent="1" vertex="1">
          <mxGeometry x="940" y="-210" width="127.5" height="60" as="geometry" />
        </mxCell>
        <mxCell id="50_oPr_vLPfGMR4ClPuE-2" value="" style="endArrow=classic;html=1;rounded=0;exitX=0.573;exitY=0.988;exitDx=0;exitDy=0;entryX=0.353;entryY=0.05;entryDx=0;entryDy=0;exitPerimeter=0;entryPerimeter=0;" parent="1" source="u_nZLA6dXxaw6uER51Nz-2" target="XoZZwqtEYvSuaSKo8Zv_-1" edge="1">
          <mxGeometry width="50" height="50" relative="1" as="geometry">
            <mxPoint x="994.9999999999995" y="-205" as="sourcePoint" />
            <mxPoint x="785.0000000000005" y="-205" as="targetPoint" />
          </mxGeometry>
        </mxCell>
        <mxCell id="RgIGIiX9YDgX1I-IBLyZ-5" value="Управляющая&lt;br&gt;команда" style="edgeLabel;html=1;align=center;verticalAlign=middle;resizable=0;points=[];" parent="50_oPr_vLPfGMR4ClPuE-2" vertex="1" connectable="0">
          <mxGeometry x="0.2249" y="1" relative="1" as="geometry">
            <mxPoint as="offset" />
          </mxGeometry>
        </mxCell>
        <mxCell id="50_oPr_vLPfGMR4ClPuE-8" value="" style="endArrow=classic;html=1;rounded=0;exitX=0.75;exitY=0;exitDx=0;exitDy=0;entryX=0.881;entryY=1.008;entryDx=0;entryDy=0;entryPerimeter=0;" parent="1" source="XoZZwqtEYvSuaSKo8Zv_-1" target="u_nZLA6dXxaw6uER51Nz-2" edge="1">
          <mxGeometry width="50" height="50" relative="1" as="geometry">
            <mxPoint x="890" y="-320" as="sourcePoint" />
            <mxPoint x="890" y="-430" as="targetPoint" />
          </mxGeometry>
        </mxCell>
        <mxCell id="RgIGIiX9YDgX1I-IBLyZ-6" value="Статус &lt;br&gt;устройства" style="edgeLabel;html=1;align=center;verticalAlign=middle;resizable=0;points=[];" parent="50_oPr_vLPfGMR4ClPuE-8" vertex="1" connectable="0">
          <mxGeometry x="-0.7097" relative="1" as="geometry">
            <mxPoint as="offset" />
          </mxGeometry>
        </mxCell>
        <mxCell id="8o_UshOBX9eLjMwOJi9H-1" value="" style="endArrow=classic;startArrow=classic;html=1;rounded=0;exitX=0.5;exitY=0;exitDx=0;exitDy=0;" parent="1" source="_O_enDlZsjK4YdfOdfHm-40" edge="1">
          <mxGeometry width="50" height="50" relative="1" as="geometry">
            <mxPoint x="930" y="-430" as="sourcePoint" />
            <mxPoint x="464" y="-420" as="targetPoint" />
          </mxGeometry>
        </mxCell>
        <mxCell id="RgIGIiX9YDgX1I-IBLyZ-2" value="Данные &lt;br&gt;дома" style="edgeLabel;html=1;align=center;verticalAlign=middle;resizable=0;points=[];" parent="8o_UshOBX9eLjMwOJi9H-1" vertex="1" connectable="0">
          <mxGeometry x="0.1644" relative="1" as="geometry">
            <mxPoint as="offset" />
          </mxGeometry>
        </mxCell>
        <mxCell id="8o_UshOBX9eLjMwOJi9H-3" value="" style="endArrow=classic;startArrow=classic;html=1;rounded=0;entryX=0.25;entryY=1;entryDx=0;entryDy=0;" parent="1" source="_O_enDlZsjK4YdfOdfHm-34" target="TyFQIvKSNbhwDLeUT2OL-2" edge="1">
          <mxGeometry width="50" height="50" relative="1" as="geometry">
            <mxPoint x="340" y="-340" as="sourcePoint" />
            <mxPoint x="339.9499999999998" y="-496.2000000000003" as="targetPoint" />
          </mxGeometry>
        </mxCell>
        <mxCell id="-zyXWMOmQ7czmRFtADtZ-15" value="Данные&lt;br&gt;пользователя" style="edgeLabel;html=1;align=center;verticalAlign=middle;resizable=0;points=[];" parent="8o_UshOBX9eLjMwOJi9H-3" vertex="1" connectable="0">
          <mxGeometry x="0.242" y="4" relative="1" as="geometry">
            <mxPoint as="offset" />
          </mxGeometry>
        </mxCell>
        <mxCell id="-zyXWMOmQ7czmRFtADtZ-7" value="" style="endArrow=classic;html=1;rounded=0;elbow=vertical;exitX=0.75;exitY=0;exitDx=0;exitDy=0;entryX=0.963;entryY=1.02;entryDx=0;entryDy=0;entryPerimeter=0;" parent="1" source="u_nZLA6dXxaw6uER51Nz-3" target="yHjOUtp3m47Egw6OyIrf-1" edge="1">
          <mxGeometry width="50" height="50" relative="1" as="geometry">
            <mxPoint x="840" y="-400" as="sourcePoint" />
            <mxPoint x="1246" y="-739" as="targetPoint" />
          </mxGeometry>
        </mxCell>
        <mxCell id="-zyXWMOmQ7czmRFtADtZ-8" value="Статус &lt;br&gt;сценария" style="edgeLabel;html=1;align=center;verticalAlign=middle;resizable=0;points=[];" parent="-zyXWMOmQ7czmRFtADtZ-7" vertex="1" connectable="0">
          <mxGeometry x="0.1282" relative="1" as="geometry">
            <mxPoint x="1" y="8" as="offset" />
          </mxGeometry>
        </mxCell>
        <mxCell id="RgIGIiX9YDgX1I-IBLyZ-7" value="" style="endArrow=classic;html=1;rounded=0;elbow=vertical;exitX=1;exitY=0.125;exitDx=0;exitDy=0;exitPerimeter=0;entryX=-0.025;entryY=0.138;entryDx=0;entryDy=0;entryPerimeter=0;" parent="1" source="Y0dIkHDllPw8EsXdR2LB-9" target="u_nZLA6dXxaw6uER51Nz-2" edge="1">
          <mxGeometry width="50" height="50" relative="1" as="geometry">
            <mxPoint x="820" y="-470" as="sourcePoint" />
            <mxPoint x="890" y="-520" as="targetPoint" />
          </mxGeometry>
        </mxCell>
        <mxCell id="Y0dIkHDllPw8EsXdR2LB-10" value="Управляющие&lt;br&gt;команды" style="edgeLabel;html=1;align=center;verticalAlign=middle;resizable=0;points=[];" parent="RgIGIiX9YDgX1I-IBLyZ-7" vertex="1" connectable="0">
          <mxGeometry x="0.1727" relative="1" as="geometry">
            <mxPoint x="-9" as="offset" />
          </mxGeometry>
        </mxCell>
        <mxCell id="RgIGIiX9YDgX1I-IBLyZ-9" value="" style="endArrow=classic;html=1;rounded=0;elbow=vertical;exitX=0;exitY=0.75;exitDx=0;exitDy=0;entryX=1;entryY=0.75;entryDx=0;entryDy=0;" parent="1" source="u_nZLA6dXxaw6uER51Nz-2" target="Y0dIkHDllPw8EsXdR2LB-9" edge="1">
          <mxGeometry width="50" height="50" relative="1" as="geometry">
            <mxPoint x="840" y="-480" as="sourcePoint" />
            <mxPoint x="840" y="-400" as="targetPoint" />
          </mxGeometry>
        </mxCell>
        <mxCell id="RgIGIiX9YDgX1I-IBLyZ-10" value="Данные &lt;br&gt;устройства" style="edgeLabel;html=1;align=center;verticalAlign=middle;resizable=0;points=[];" parent="RgIGIiX9YDgX1I-IBLyZ-9" vertex="1" connectable="0">
          <mxGeometry x="0.1965" relative="1" as="geometry">
            <mxPoint x="12" as="offset" />
          </mxGeometry>
        </mxCell>
        <mxCell id="RgIGIiX9YDgX1I-IBLyZ-11" value="" style="endArrow=classic;html=1;rounded=0;elbow=vertical;exitX=1;exitY=0.75;exitDx=0;exitDy=0;entryX=0;entryY=0.75;entryDx=0;entryDy=0;" parent="1" source="u_nZLA6dXxaw6uER51Nz-2" target="u_nZLA6dXxaw6uER51Nz-4" edge="1">
          <mxGeometry width="50" height="50" relative="1" as="geometry">
            <mxPoint x="950" y="-480" as="sourcePoint" />
            <mxPoint x="830" y="-480" as="targetPoint" />
          </mxGeometry>
        </mxCell>
        <mxCell id="RgIGIiX9YDgX1I-IBLyZ-12" value="Данные &lt;br&gt;устройства" style="edgeLabel;html=1;align=center;verticalAlign=middle;resizable=0;points=[];" parent="RgIGIiX9YDgX1I-IBLyZ-11" vertex="1" connectable="0">
          <mxGeometry x="0.1965" relative="1" as="geometry">
            <mxPoint x="-16" as="offset" />
          </mxGeometry>
        </mxCell>
        <mxCell id="RgIGIiX9YDgX1I-IBLyZ-13" value="" style="endArrow=classic;html=1;rounded=0;elbow=vertical;exitX=0;exitY=0.25;exitDx=0;exitDy=0;entryX=1;entryY=0.25;entryDx=0;entryDy=0;" parent="1" source="u_nZLA6dXxaw6uER51Nz-4" target="u_nZLA6dXxaw6uER51Nz-2" edge="1">
          <mxGeometry width="50" height="50" relative="1" as="geometry">
            <mxPoint x="940" y="-530" as="sourcePoint" />
            <mxPoint x="960" y="-520" as="targetPoint" />
            <Array as="points" />
          </mxGeometry>
        </mxCell>
        <mxCell id="RgIGIiX9YDgX1I-IBLyZ-14" value="Управляющие&lt;br&gt;команды" style="edgeLabel;html=1;align=center;verticalAlign=middle;resizable=0;points=[];" parent="RgIGIiX9YDgX1I-IBLyZ-13" vertex="1" connectable="0">
          <mxGeometry x="0.2272" y="1" relative="1" as="geometry">
            <mxPoint x="17" y="-11" as="offset" />
          </mxGeometry>
        </mxCell>
        <mxCell id="Y0dIkHDllPw8EsXdR2LB-3" value="" style="endArrow=classic;startArrow=classic;html=1;rounded=0;exitX=0.694;exitY=-0.093;exitDx=0;exitDy=0;exitPerimeter=0;entryX=0.25;entryY=1;entryDx=0;entryDy=0;" parent="1" source="_O_enDlZsjK4YdfOdfHm-44" target="u_nZLA6dXxaw6uER51Nz-2" edge="1">
          <mxGeometry width="50" height="50" relative="1" as="geometry">
            <mxPoint x="730" y="-490" as="sourcePoint" />
            <mxPoint x="780" y="-540" as="targetPoint" />
          </mxGeometry>
        </mxCell>
        <mxCell id="Y0dIkHDllPw8EsXdR2LB-4" value="Данные&lt;br&gt;устройства" style="edgeLabel;html=1;align=center;verticalAlign=middle;resizable=0;points=[];" parent="Y0dIkHDllPw8EsXdR2LB-3" vertex="1" connectable="0">
          <mxGeometry x="0.1941" y="1" relative="1" as="geometry">
            <mxPoint as="offset" />
          </mxGeometry>
        </mxCell>
        <mxCell id="Y0dIkHDllPw8EsXdR2LB-5" value="" style="endArrow=classic;startArrow=classic;html=1;rounded=0;exitX=0.642;exitY=-0.073;exitDx=0;exitDy=0;exitPerimeter=0;entryX=0.5;entryY=1;entryDx=0;entryDy=0;" parent="1" source="s9JWuUlm9TfW3Cb926ho-1" target="u_nZLA6dXxaw6uER51Nz-4" edge="1">
          <mxGeometry width="50" height="50" relative="1" as="geometry">
            <mxPoint x="730" y="-490" as="sourcePoint" />
            <mxPoint x="780" y="-540" as="targetPoint" />
          </mxGeometry>
        </mxCell>
        <mxCell id="Y0dIkHDllPw8EsXdR2LB-6" value="Сценарий" style="edgeLabel;html=1;align=center;verticalAlign=middle;resizable=0;points=[];" parent="Y0dIkHDllPw8EsXdR2LB-5" vertex="1" connectable="0">
          <mxGeometry x="-0.1483" y="2" relative="1" as="geometry">
            <mxPoint as="offset" />
          </mxGeometry>
        </mxCell>
        <mxCell id="Y0dIkHDllPw8EsXdR2LB-8" value="3" style="swimlane;childLayout=stackLayout;horizontal=1;startSize=30;horizontalStack=0;rounded=1;fontSize=14;fontStyle=0;strokeWidth=1;resizeParent=0;resizeLast=1;shadow=0;dashed=0;align=center;fillColor=#FFFFFF;" parent="1" vertex="1">
          <mxGeometry x="630" y="-530" width="150" height="110" as="geometry" />
        </mxCell>
        <mxCell id="Y0dIkHDllPw8EsXdR2LB-9" value="Управлять комнатами" style="align=center;strokeColor=none;fillColor=none;spacingLeft=4;fontSize=12;verticalAlign=middle;resizable=0;rotatable=0;part=1;" parent="Y0dIkHDllPw8EsXdR2LB-8" vertex="1">
          <mxGeometry y="30" width="150" height="80" as="geometry" />
        </mxCell>
        <mxCell id="Y0dIkHDllPw8EsXdR2LB-11" value="" style="endArrow=classic;html=1;rounded=0;entryX=0.333;entryY=-0.018;entryDx=0;entryDy=0;entryPerimeter=0;" parent="1" target="Y0dIkHDllPw8EsXdR2LB-8" edge="1">
          <mxGeometry width="50" height="50" relative="1" as="geometry">
            <mxPoint x="680" y="-740" as="sourcePoint" />
            <mxPoint x="780" y="-550" as="targetPoint" />
          </mxGeometry>
        </mxCell>
        <mxCell id="Y0dIkHDllPw8EsXdR2LB-12" value="Данные&amp;nbsp;&lt;br&gt;&amp;nbsp;комнат" style="edgeLabel;html=1;align=center;verticalAlign=middle;resizable=0;points=[];" parent="Y0dIkHDllPw8EsXdR2LB-11" vertex="1" connectable="0">
          <mxGeometry x="-0.1896" y="2" relative="1" as="geometry">
            <mxPoint x="-2" y="26" as="offset" />
          </mxGeometry>
        </mxCell>
        <mxCell id="Y0dIkHDllPw8EsXdR2LB-13" value="" style="endArrow=classic;html=1;rounded=0;exitX=0.75;exitY=0;exitDx=0;exitDy=0;entryX=0.485;entryY=1;entryDx=0;entryDy=0;entryPerimeter=0;" parent="1" source="Y0dIkHDllPw8EsXdR2LB-8" target="yHjOUtp3m47Egw6OyIrf-1" edge="1">
          <mxGeometry width="50" height="50" relative="1" as="geometry">
            <mxPoint x="730" y="-510" as="sourcePoint" />
            <mxPoint x="749" y="-735" as="targetPoint" />
          </mxGeometry>
        </mxCell>
        <mxCell id="Y0dIkHDllPw8EsXdR2LB-14" value="Статусы&lt;br&gt;комнат" style="edgeLabel;html=1;align=center;verticalAlign=middle;resizable=0;points=[];" parent="Y0dIkHDllPw8EsXdR2LB-13" vertex="1" connectable="0">
          <mxGeometry x="-0.3434" relative="1" as="geometry">
            <mxPoint x="1" y="-31" as="offset" />
          </mxGeometry>
        </mxCell>
        <mxCell id="Y0dIkHDllPw8EsXdR2LB-15" value="D3" style="html=1;dashed=0;whitespace=wrap;shape=mxgraph.dfd.dataStoreID;align=left;spacingLeft=3;points=[[0,0],[0.5,0],[1,0],[0,0.5],[1,0.5],[0,1],[0.5,1],[1,1]];fontSize=10;" parent="1" vertex="1">
          <mxGeometry x="655" y="-275" width="100" height="30" as="geometry" />
        </mxCell>
        <mxCell id="Y0dIkHDllPw8EsXdR2LB-16" value="&lt;span style=&quot;font-size: 10px;&quot;&gt;Комнаты&lt;/span&gt;" style="text;html=1;strokeColor=none;fillColor=none;align=left;verticalAlign=middle;whiteSpace=wrap;rounded=0;" parent="1" vertex="1">
          <mxGeometry x="690" y="-270" width="108" height="20" as="geometry" />
        </mxCell>
        <mxCell id="Y0dIkHDllPw8EsXdR2LB-17" value="" style="endArrow=classic;startArrow=classic;html=1;rounded=0;exitX=0.5;exitY=0;exitDx=0;exitDy=0;entryX=0.5;entryY=1;entryDx=0;entryDy=0;" parent="1" source="Y0dIkHDllPw8EsXdR2LB-15" target="Y0dIkHDllPw8EsXdR2LB-9" edge="1">
          <mxGeometry width="50" height="50" relative="1" as="geometry">
            <mxPoint x="730" y="-380" as="sourcePoint" />
            <mxPoint x="780" y="-430" as="targetPoint" />
          </mxGeometry>
        </mxCell>
        <mxCell id="Y0dIkHDllPw8EsXdR2LB-18" value="Данные&amp;nbsp;&lt;br&gt;комнат" style="edgeLabel;html=1;align=center;verticalAlign=middle;resizable=0;points=[];" parent="Y0dIkHDllPw8EsXdR2LB-17" vertex="1" connectable="0">
          <mxGeometry x="0.2138" y="2" relative="1" as="geometry">
            <mxPoint as="offset" />
          </mxGeometry>
        </mxCell>
      </root>
    </mxGraphModel>
  </diagram>
  <diagram id="VPFG0wGkTZW3ClHnqaiZ" name="ER модель">
    <mxGraphModel grid="1" page="1" gridSize="10" guides="1" tooltips="1" connect="1" arrows="1" fold="1" pageScale="1" pageWidth="827" pageHeight="1169" math="0" shadow="0">
      <root>
        <mxCell id="0" />
        <mxCell id="1" parent="0" />
        <mxCell id="P8IBvrmL_pghqHeqKu2c-1" value="Пользователь" style="swimlane;childLayout=stackLayout;horizontal=1;startSize=30;horizontalStack=0;rounded=1;fontSize=14;fontStyle=0;strokeWidth=2;resizeParent=0;resizeLast=1;shadow=0;dashed=0;align=center;fillColor=#FFFFFF;" vertex="1" parent="1">
          <mxGeometry x="-320" y="210" width="160" height="120" as="geometry" />
        </mxCell>
        <mxCell id="P8IBvrmL_pghqHeqKu2c-2" value="* ID пользователя&#xa;Электронная почта&#xa;Пароль&#xa;Имя пользователя&#xa;Количество домов" style="align=left;strokeColor=none;fillColor=none;spacingLeft=4;fontSize=12;verticalAlign=top;resizable=0;rotatable=0;part=1;" vertex="1" parent="P8IBvrmL_pghqHeqKu2c-1">
          <mxGeometry y="30" width="160" height="90" as="geometry" />
        </mxCell>
        <mxCell id="P8IBvrmL_pghqHeqKu2c-3" value="Дом" style="swimlane;childLayout=stackLayout;horizontal=1;startSize=30;horizontalStack=0;rounded=1;fontSize=14;fontStyle=0;strokeWidth=2;resizeParent=0;resizeLast=1;shadow=0;dashed=0;align=center;fillColor=#FFFFFF;" vertex="1" parent="1">
          <mxGeometry x="180" y="210" width="160" height="120" as="geometry" />
        </mxCell>
        <mxCell id="P8IBvrmL_pghqHeqKu2c-4" value="* ID дома&#xa;Название дома&#xa;Количество комнат&#xa;Количество устройств&#xa;Количество сценариев" style="align=left;strokeColor=none;fillColor=none;spacingLeft=4;fontSize=12;verticalAlign=top;resizable=0;rotatable=0;part=1;" vertex="1" parent="P8IBvrmL_pghqHeqKu2c-3">
          <mxGeometry y="30" width="160" height="90" as="geometry" />
        </mxCell>
        <mxCell id="P8IBvrmL_pghqHeqKu2c-6" value="Комната" style="swimlane;childLayout=stackLayout;horizontal=1;startSize=30;horizontalStack=0;rounded=1;fontSize=14;fontStyle=0;strokeWidth=2;resizeParent=0;resizeLast=1;shadow=0;dashed=0;align=center;fillColor=#FFFFFF;" vertex="1" parent="1">
          <mxGeometry x="180" y="465" width="160" height="120" as="geometry" />
        </mxCell>
        <mxCell id="P8IBvrmL_pghqHeqKu2c-7" value="* Номер комнаты&#xa;Название комнаты&#xa;Номер типа комнаты&#xa;Номер иконки комнаты" style="align=left;strokeColor=none;fillColor=none;spacingLeft=4;fontSize=12;verticalAlign=top;resizable=0;rotatable=0;part=1;" vertex="1" parent="P8IBvrmL_pghqHeqKu2c-6">
          <mxGeometry y="30" width="160" height="90" as="geometry" />
        </mxCell>
        <mxCell id="P8IBvrmL_pghqHeqKu2c-8" value="Устройство" style="swimlane;childLayout=stackLayout;horizontal=1;startSize=30;horizontalStack=0;rounded=1;fontSize=14;fontStyle=0;strokeWidth=2;resizeParent=0;resizeLast=1;shadow=0;dashed=0;align=center;fillColor=#FFFFFF;" vertex="1" parent="1">
          <mxGeometry x="610" y="330" width="160" height="130" as="geometry" />
        </mxCell>
        <mxCell id="P8IBvrmL_pghqHeqKu2c-9" value="* ID устройства&#xa;Номер типа устройства&#xa;Номер статуса устройства&#xa;Режим энергосбережения" style="align=left;strokeColor=none;fillColor=none;spacingLeft=4;fontSize=12;verticalAlign=top;resizable=0;rotatable=0;part=1;" vertex="1" parent="P8IBvrmL_pghqHeqKu2c-8">
          <mxGeometry y="30" width="160" height="100" as="geometry" />
        </mxCell>
        <mxCell id="P8IBvrmL_pghqHeqKu2c-10" value="Управление домом" style="swimlane;childLayout=stackLayout;horizontal=1;startSize=30;horizontalStack=0;rounded=1;fontSize=14;fontStyle=0;strokeWidth=2;resizeParent=0;resizeLast=1;shadow=0;dashed=0;align=center;fillColor=#FFFFFF;" vertex="1" parent="1">
          <mxGeometry x="-70" y="260" width="160" height="120" as="geometry" />
        </mxCell>
        <mxCell id="P8IBvrmL_pghqHeqKu2c-11" value="* ID дома&#xa;* ID пользователя" style="align=left;strokeColor=none;fillColor=none;spacingLeft=4;fontSize=12;verticalAlign=top;resizable=0;rotatable=0;part=1;" vertex="1" parent="P8IBvrmL_pghqHeqKu2c-10">
          <mxGeometry y="30" width="160" height="90" as="geometry" />
        </mxCell>
        <mxCell id="P8IBvrmL_pghqHeqKu2c-12" value="" style="edgeStyle=entityRelationEdgeStyle;fontSize=12;html=1;endArrow=ERzeroToMany;startArrow=ERmandOne;rounded=0;exitX=1.011;exitY=0.137;exitDx=0;exitDy=0;exitPerimeter=0;entryX=-0.021;entryY=0.143;entryDx=0;entryDy=0;entryPerimeter=0;" edge="1" parent="1" source="P8IBvrmL_pghqHeqKu2c-1" target="P8IBvrmL_pghqHeqKu2c-3">
          <mxGeometry width="100" height="100" relative="1" as="geometry">
            <mxPoint x="240" y="370" as="sourcePoint" />
            <mxPoint x="340" y="270" as="targetPoint" />
          </mxGeometry>
        </mxCell>
        <mxCell id="nPNtkgEXDLtEg9yNuhG8-47" value="Владеет" style="edgeLabel;html=1;align=center;verticalAlign=middle;resizable=0;points=[];" vertex="1" connectable="0" parent="P8IBvrmL_pghqHeqKu2c-12">
          <mxGeometry x="-0.0431" y="-3" relative="1" as="geometry">
            <mxPoint as="offset" />
          </mxGeometry>
        </mxCell>
        <mxCell id="nPNtkgEXDLtEg9yNuhG8-6" value="" style="edgeStyle=entityRelationEdgeStyle;fontSize=12;html=1;endArrow=ERzeroToMany;startArrow=ERmandOne;rounded=0;exitX=0.996;exitY=0.107;exitDx=0;exitDy=0;entryX=0;entryY=0.25;entryDx=0;entryDy=0;exitPerimeter=0;" edge="1" parent="1" source="P8IBvrmL_pghqHeqKu2c-2" target="P8IBvrmL_pghqHeqKu2c-11">
          <mxGeometry width="100" height="100" relative="1" as="geometry">
            <mxPoint x="-70" y="300" as="sourcePoint" />
            <mxPoint x="-90" y="480" as="targetPoint" />
          </mxGeometry>
        </mxCell>
        <mxCell id="nPNtkgEXDLtEg9yNuhG8-49" value="Управляет" style="edgeLabel;html=1;align=center;verticalAlign=middle;resizable=0;points=[];" vertex="1" connectable="0" parent="nPNtkgEXDLtEg9yNuhG8-6">
          <mxGeometry x="-0.1097" y="2" relative="1" as="geometry">
            <mxPoint x="-1" as="offset" />
          </mxGeometry>
        </mxCell>
        <mxCell id="nPNtkgEXDLtEg9yNuhG8-7" value="" style="edgeStyle=entityRelationEdgeStyle;fontSize=12;html=1;endArrow=ERzeroToMany;startArrow=ERmandOne;rounded=0;exitX=-0.001;exitY=0.169;exitDx=0;exitDy=0;entryX=1.001;entryY=0.107;entryDx=0;entryDy=0;exitPerimeter=0;entryPerimeter=0;" edge="1" parent="1" source="P8IBvrmL_pghqHeqKu2c-4" target="P8IBvrmL_pghqHeqKu2c-11">
          <mxGeometry width="100" height="100" relative="1" as="geometry">
            <mxPoint x="-130.63999999999987" y="259.63" as="sourcePoint" />
            <mxPoint x="-70" y="492.5" as="targetPoint" />
          </mxGeometry>
        </mxCell>
        <mxCell id="nPNtkgEXDLtEg9yNuhG8-50" value="Имеет" style="edgeLabel;html=1;align=center;verticalAlign=middle;resizable=0;points=[];" vertex="1" connectable="0" parent="nPNtkgEXDLtEg9yNuhG8-7">
          <mxGeometry x="-0.389" y="1" relative="1" as="geometry">
            <mxPoint as="offset" />
          </mxGeometry>
        </mxCell>
        <mxCell id="nPNtkgEXDLtEg9yNuhG8-13" value="" style="edgeStyle=entityRelationEdgeStyle;fontSize=12;html=1;endArrow=ERzeroToMany;startArrow=ERmandOne;rounded=0;entryX=1;entryY=0.25;entryDx=0;entryDy=0;exitX=1;exitY=0.75;exitDx=0;exitDy=0;" edge="1" parent="1" source="P8IBvrmL_pghqHeqKu2c-4" target="P8IBvrmL_pghqHeqKu2c-7">
          <mxGeometry width="100" height="100" relative="1" as="geometry">
            <mxPoint x="340" y="260" as="sourcePoint" />
            <mxPoint x="580.6399999999999" y="662.87" as="targetPoint" />
          </mxGeometry>
        </mxCell>
        <mxCell id="nPNtkgEXDLtEg9yNuhG8-46" value="Имеет" style="edgeLabel;html=1;align=center;verticalAlign=middle;resizable=0;points=[];" vertex="1" connectable="0" parent="nPNtkgEXDLtEg9yNuhG8-13">
          <mxGeometry x="-0.1119" y="1" relative="1" as="geometry">
            <mxPoint y="13" as="offset" />
          </mxGeometry>
        </mxCell>
        <mxCell id="nPNtkgEXDLtEg9yNuhG8-14" value="" style="edgeStyle=entityRelationEdgeStyle;fontSize=12;html=1;endArrow=ERzeroToMany;startArrow=ERmandOne;rounded=0;exitX=1;exitY=0.25;exitDx=0;exitDy=0;entryX=0;entryY=0.5;entryDx=0;entryDy=0;" edge="1" parent="1" source="P8IBvrmL_pghqHeqKu2c-4" target="P8IBvrmL_pghqHeqKu2c-9">
          <mxGeometry width="100" height="100" relative="1" as="geometry">
            <mxPoint x="350" y="317.5" as="sourcePoint" />
            <mxPoint x="540" y="360" as="targetPoint" />
          </mxGeometry>
        </mxCell>
        <mxCell id="nPNtkgEXDLtEg9yNuhG8-45" value="Содержит" style="edgeLabel;html=1;align=center;verticalAlign=middle;resizable=0;points=[];" vertex="1" connectable="0" parent="nPNtkgEXDLtEg9yNuhG8-14">
          <mxGeometry x="-0.1031" y="2" relative="1" as="geometry">
            <mxPoint as="offset" />
          </mxGeometry>
        </mxCell>
        <mxCell id="nPNtkgEXDLtEg9yNuhG8-17" value="" style="edgeStyle=entityRelationEdgeStyle;fontSize=12;html=1;endArrow=ERzeroToMany;startArrow=ERzeroToOne;rounded=0;exitX=1;exitY=0.5;exitDx=0;exitDy=0;entryX=0;entryY=0.75;entryDx=0;entryDy=0;" edge="1" parent="1" source="P8IBvrmL_pghqHeqKu2c-7" target="P8IBvrmL_pghqHeqKu2c-9">
          <mxGeometry width="100" height="100" relative="1" as="geometry">
            <mxPoint x="364" y="630" as="sourcePoint" />
            <mxPoint x="464" y="530" as="targetPoint" />
          </mxGeometry>
        </mxCell>
        <mxCell id="nPNtkgEXDLtEg9yNuhG8-44" value="Расположено" style="edgeLabel;html=1;align=center;verticalAlign=middle;resizable=0;points=[];" vertex="1" connectable="0" parent="nPNtkgEXDLtEg9yNuhG8-17">
          <mxGeometry x="0.0422" y="-2" relative="1" as="geometry">
            <mxPoint as="offset" />
          </mxGeometry>
        </mxCell>
        <mxCell id="nPNtkgEXDLtEg9yNuhG8-23" value="Сценарий" style="swimlane;childLayout=stackLayout;horizontal=1;startSize=30;horizontalStack=0;rounded=1;fontSize=14;fontStyle=0;strokeWidth=2;resizeParent=0;resizeLast=1;shadow=0;dashed=0;align=center;fillColor=#FFFFFF;" vertex="1" parent="1">
          <mxGeometry x="180" y="870" width="160" height="130" as="geometry" />
        </mxCell>
        <mxCell id="nPNtkgEXDLtEg9yNuhG8-24" value="* Номер сценария&#xa;Название сценария&#xa;Статус сценария" style="align=left;strokeColor=none;fillColor=none;spacingLeft=4;fontSize=12;verticalAlign=top;resizable=0;rotatable=0;part=1;" vertex="1" parent="nPNtkgEXDLtEg9yNuhG8-23">
          <mxGeometry y="30" width="160" height="100" as="geometry" />
        </mxCell>
        <mxCell id="nPNtkgEXDLtEg9yNuhG8-25" value="Состав сценария" style="swimlane;childLayout=stackLayout;horizontal=1;startSize=30;horizontalStack=0;rounded=1;fontSize=14;fontStyle=0;strokeWidth=2;resizeParent=0;resizeLast=1;shadow=0;dashed=0;align=center;fillColor=#FFFFFF;" vertex="1" parent="1">
          <mxGeometry x="510" y="870" width="160" height="130" as="geometry" />
        </mxCell>
        <mxCell id="nPNtkgEXDLtEg9yNuhG8-26" value="* Номер сценария&#xa;* ID устройства&#xa;Управляющая команда&#xa;" style="align=left;strokeColor=none;fillColor=none;spacingLeft=4;fontSize=12;verticalAlign=top;resizable=0;rotatable=0;part=1;" vertex="1" parent="nPNtkgEXDLtEg9yNuhG8-25">
          <mxGeometry y="30" width="160" height="100" as="geometry" />
        </mxCell>
        <mxCell id="nPNtkgEXDLtEg9yNuhG8-31" value="" style="edgeStyle=entityRelationEdgeStyle;fontSize=12;html=1;endArrow=ERoneToMany;startArrow=ERmandOne;rounded=0;entryX=0;entryY=0.5;entryDx=0;entryDy=0;exitX=1.009;exitY=0.348;exitDx=0;exitDy=0;exitPerimeter=0;" edge="1" parent="1" source="nPNtkgEXDLtEg9yNuhG8-24" target="nPNtkgEXDLtEg9yNuhG8-25">
          <mxGeometry width="100" height="100" relative="1" as="geometry">
            <mxPoint x="190" y="925" as="sourcePoint" />
            <mxPoint x="340" y="860" as="targetPoint" />
          </mxGeometry>
        </mxCell>
        <mxCell id="nPNtkgEXDLtEg9yNuhG8-42" value="Состоит" style="edgeLabel;html=1;align=center;verticalAlign=middle;resizable=0;points=[];" vertex="1" connectable="0" parent="nPNtkgEXDLtEg9yNuhG8-31">
          <mxGeometry x="0.0674" y="-2" relative="1" as="geometry">
            <mxPoint as="offset" />
          </mxGeometry>
        </mxCell>
        <mxCell id="nPNtkgEXDLtEg9yNuhG8-34" value="" style="edgeStyle=elbowEdgeStyle;fontSize=12;html=1;endArrow=ERzeroToMany;startArrow=ERmandOne;rounded=0;exitX=0;exitY=0.75;exitDx=0;exitDy=0;entryX=0;entryY=0.25;entryDx=0;entryDy=0;" edge="1" parent="1" source="P8IBvrmL_pghqHeqKu2c-4" target="nPNtkgEXDLtEg9yNuhG8-24">
          <mxGeometry width="100" height="100" relative="1" as="geometry">
            <mxPoint x="-60" y="530" as="sourcePoint" />
            <mxPoint x="90" y="780" as="targetPoint" />
            <Array as="points">
              <mxPoint x="150" y="540" />
            </Array>
          </mxGeometry>
        </mxCell>
        <mxCell id="nPNtkgEXDLtEg9yNuhG8-43" value="Имеет" style="edgeLabel;html=1;align=center;verticalAlign=middle;resizable=0;points=[];" vertex="1" connectable="0" parent="nPNtkgEXDLtEg9yNuhG8-34">
          <mxGeometry x="0.3689" y="-1" relative="1" as="geometry">
            <mxPoint as="offset" />
          </mxGeometry>
        </mxCell>
        <mxCell id="nPNtkgEXDLtEg9yNuhG8-51" value="Расписание" style="swimlane;childLayout=stackLayout;horizontal=1;startSize=30;horizontalStack=0;rounded=1;fontSize=14;fontStyle=0;strokeWidth=2;resizeParent=0;resizeLast=1;shadow=0;dashed=0;align=center;fillColor=#FFFFFF;" vertex="1" parent="1">
          <mxGeometry x="-200" y="870" width="170" height="130" as="geometry" />
        </mxCell>
        <mxCell id="nPNtkgEXDLtEg9yNuhG8-52" value="* Номер сценария&#xa;* Номер дня недели&#xa;Время запуска сценария&#xa;Время окончания сценария" style="align=left;strokeColor=none;fillColor=none;spacingLeft=4;fontSize=12;verticalAlign=top;resizable=0;rotatable=0;part=1;" vertex="1" parent="nPNtkgEXDLtEg9yNuhG8-51">
          <mxGeometry y="30" width="170" height="100" as="geometry" />
        </mxCell>
        <mxCell id="nPNtkgEXDLtEg9yNuhG8-55" value="" style="edgeStyle=entityRelationEdgeStyle;fontSize=12;html=1;endArrow=ERzeroToMany;startArrow=ERmandOne;rounded=0;entryX=1;entryY=0.5;entryDx=0;entryDy=0;exitX=0;exitY=0.5;exitDx=0;exitDy=0;" edge="1" parent="1" source="nPNtkgEXDLtEg9yNuhG8-24" target="nPNtkgEXDLtEg9yNuhG8-52">
          <mxGeometry width="100" height="100" relative="1" as="geometry">
            <mxPoint x="30" y="1130" as="sourcePoint" />
            <mxPoint x="130" y="1030" as="targetPoint" />
          </mxGeometry>
        </mxCell>
        <mxCell id="nPNtkgEXDLtEg9yNuhG8-56" value="Выполняется" style="edgeLabel;html=1;align=center;verticalAlign=middle;resizable=0;points=[];" vertex="1" connectable="0" parent="nPNtkgEXDLtEg9yNuhG8-55">
          <mxGeometry x="-0.005" relative="1" as="geometry">
            <mxPoint as="offset" />
          </mxGeometry>
        </mxCell>
        <mxCell id="nPNtkgEXDLtEg9yNuhG8-57" value="Дни недели" style="swimlane;childLayout=stackLayout;horizontal=1;startSize=30;horizontalStack=0;rounded=1;fontSize=14;fontStyle=0;strokeWidth=2;resizeParent=0;resizeLast=1;shadow=0;dashed=0;align=center;fillColor=#FFFFFF;" vertex="1" parent="1">
          <mxGeometry x="-200" y="1070" width="160" height="130" as="geometry" />
        </mxCell>
        <mxCell id="nPNtkgEXDLtEg9yNuhG8-58" value="* Номер дня недели&#xa;Название дня недели" style="align=left;strokeColor=none;fillColor=none;spacingLeft=4;fontSize=12;verticalAlign=top;resizable=0;rotatable=0;part=1;" vertex="1" parent="nPNtkgEXDLtEg9yNuhG8-57">
          <mxGeometry y="30" width="160" height="100" as="geometry" />
        </mxCell>
        <mxCell id="nPNtkgEXDLtEg9yNuhG8-59" value="" style="edgeStyle=elbowEdgeStyle;fontSize=12;html=1;endArrow=ERzeroToMany;startArrow=ERmandOne;rounded=0;exitX=-0.013;exitY=0.1;exitDx=0;exitDy=0;entryX=-0.013;entryY=0.379;entryDx=0;entryDy=0;entryPerimeter=0;exitPerimeter=0;" edge="1" parent="1" source="nPNtkgEXDLtEg9yNuhG8-58" target="nPNtkgEXDLtEg9yNuhG8-52">
          <mxGeometry width="100" height="100" relative="1" as="geometry">
            <mxPoint x="-400" y="990" as="sourcePoint" />
            <mxPoint x="-300" y="890" as="targetPoint" />
            <Array as="points">
              <mxPoint x="-240" y="1030" />
            </Array>
          </mxGeometry>
        </mxCell>
        <mxCell id="nPNtkgEXDLtEg9yNuhG8-60" value="Принадлежит" style="edgeLabel;html=1;align=center;verticalAlign=middle;resizable=0;points=[];" vertex="1" connectable="0" parent="nPNtkgEXDLtEg9yNuhG8-59">
          <mxGeometry x="-0.0896" relative="1" as="geometry">
            <mxPoint as="offset" />
          </mxGeometry>
        </mxCell>
        <mxCell id="xhL3NfZ1MA-xvW2xtk2E-1" value="Статус устройства" style="swimlane;childLayout=stackLayout;horizontal=1;startSize=30;horizontalStack=0;rounded=1;fontSize=14;fontStyle=0;strokeWidth=2;resizeParent=0;resizeLast=1;shadow=0;dashed=0;align=center;fillColor=#FFFFFF;" vertex="1" parent="1">
          <mxGeometry x="610" y="180" width="190" height="70" as="geometry" />
        </mxCell>
        <mxCell id="xhL3NfZ1MA-xvW2xtk2E-2" value="* Номер статуса устройства&#xa;Название статуса устройства" style="align=left;strokeColor=none;fillColor=none;spacingLeft=4;fontSize=12;verticalAlign=top;resizable=0;rotatable=0;part=1;" vertex="1" parent="xhL3NfZ1MA-xvW2xtk2E-1">
          <mxGeometry y="30" width="190" height="40" as="geometry" />
        </mxCell>
        <mxCell id="p5apBsh6s3tMoG4SB-OD-1" value="" style="edgeStyle=elbowEdgeStyle;fontSize=12;html=1;endArrow=ERzeroToMany;startArrow=ERmandOne;rounded=0;exitX=0;exitY=0.25;exitDx=0;exitDy=0;entryX=0;entryY=0.25;entryDx=0;entryDy=0;" edge="1" parent="1" source="xhL3NfZ1MA-xvW2xtk2E-1" target="P8IBvrmL_pghqHeqKu2c-9">
          <mxGeometry width="100" height="100" relative="1" as="geometry">
            <mxPoint x="520" y="200" as="sourcePoint" />
            <mxPoint x="520" y="27.899999999999864" as="targetPoint" />
            <Array as="points">
              <mxPoint x="580" y="230" />
              <mxPoint x="482.0799999999999" y="120" />
            </Array>
          </mxGeometry>
        </mxCell>
        <mxCell id="p5apBsh6s3tMoG4SB-OD-2" value="Принадлежит" style="edgeLabel;html=1;align=center;verticalAlign=middle;resizable=0;points=[];" vertex="1" connectable="0" parent="p5apBsh6s3tMoG4SB-OD-1">
          <mxGeometry x="-0.0896" relative="1" as="geometry">
            <mxPoint as="offset" />
          </mxGeometry>
        </mxCell>
        <mxCell id="p5apBsh6s3tMoG4SB-OD-3" value="" style="edgeStyle=elbowEdgeStyle;fontSize=12;html=1;endArrow=ERzeroToMany;startArrow=ERmandOne;rounded=0;entryX=1;entryY=0.5;entryDx=0;entryDy=0;exitX=1;exitY=0.25;exitDx=0;exitDy=0;" edge="1" parent="1" source="P8IBvrmL_pghqHeqKu2c-9" target="nPNtkgEXDLtEg9yNuhG8-26">
          <mxGeometry width="100" height="100" relative="1" as="geometry">
            <mxPoint x="550" y="700" as="sourcePoint" />
            <mxPoint x="330.00000000000045" y="700" as="targetPoint" />
            <Array as="points">
              <mxPoint x="790" y="630" />
              <mxPoint x="800" y="730" />
            </Array>
          </mxGeometry>
        </mxCell>
        <mxCell id="p5apBsh6s3tMoG4SB-OD-4" value="Содержит" style="edgeLabel;html=1;align=center;verticalAlign=middle;resizable=0;points=[];" vertex="1" connectable="0" parent="p5apBsh6s3tMoG4SB-OD-3">
          <mxGeometry x="-0.005" relative="1" as="geometry">
            <mxPoint as="offset" />
          </mxGeometry>
        </mxCell>
        <mxCell id="p5apBsh6s3tMoG4SB-OD-5" value="Тип комнаты" style="swimlane;childLayout=stackLayout;horizontal=1;startSize=30;horizontalStack=0;rounded=1;fontSize=14;fontStyle=0;strokeWidth=2;resizeParent=0;resizeLast=1;shadow=0;dashed=0;align=center;fillColor=#FFFFFF;" vertex="1" parent="1">
          <mxGeometry x="414" y="600" width="160" height="70" as="geometry" />
        </mxCell>
        <mxCell id="p5apBsh6s3tMoG4SB-OD-6" value="* Номер типа комнаты&#xa;Название типа комнаты" style="align=left;strokeColor=none;fillColor=none;spacingLeft=4;fontSize=12;verticalAlign=top;resizable=0;rotatable=0;part=1;" vertex="1" parent="p5apBsh6s3tMoG4SB-OD-5">
          <mxGeometry y="30" width="160" height="40" as="geometry" />
        </mxCell>
        <mxCell id="p5apBsh6s3tMoG4SB-OD-8" value="Иконка комнаты" style="swimlane;childLayout=stackLayout;horizontal=1;startSize=30;horizontalStack=0;rounded=1;fontSize=14;fontStyle=0;strokeWidth=2;resizeParent=0;resizeLast=1;shadow=0;dashed=0;align=center;fillColor=#FFFFFF;" vertex="1" parent="1">
          <mxGeometry x="320" y="710" width="160" height="70" as="geometry" />
        </mxCell>
        <mxCell id="p5apBsh6s3tMoG4SB-OD-9" value="* Номер иконки комнаты&#xa;Файл иконки комнаты" style="align=left;strokeColor=none;fillColor=none;spacingLeft=4;fontSize=12;verticalAlign=top;resizable=0;rotatable=0;part=1;" vertex="1" parent="p5apBsh6s3tMoG4SB-OD-8">
          <mxGeometry y="30" width="160" height="40" as="geometry" />
        </mxCell>
        <mxCell id="p5apBsh6s3tMoG4SB-OD-10" value="" style="edgeStyle=elbowEdgeStyle;fontSize=12;html=1;endArrow=ERzeroToMany;startArrow=ERmandOne;rounded=0;exitX=0.25;exitY=1;exitDx=0;exitDy=0;entryX=0.75;entryY=1;entryDx=0;entryDy=0;elbow=vertical;" edge="1" parent="1" source="p5apBsh6s3tMoG4SB-OD-6" target="P8IBvrmL_pghqHeqKu2c-7">
          <mxGeometry width="100" height="100" relative="1" as="geometry">
            <mxPoint x="410" y="590" as="sourcePoint" />
            <mxPoint x="410" y="777.5" as="targetPoint" />
            <Array as="points">
              <mxPoint x="500" y="690" />
              <mxPoint x="510" y="620" />
            </Array>
          </mxGeometry>
        </mxCell>
        <mxCell id="p5apBsh6s3tMoG4SB-OD-11" value="Принадлежит" style="edgeLabel;html=1;align=center;verticalAlign=middle;resizable=0;points=[];" vertex="1" connectable="0" parent="p5apBsh6s3tMoG4SB-OD-10">
          <mxGeometry x="-0.0896" relative="1" as="geometry">
            <mxPoint as="offset" />
          </mxGeometry>
        </mxCell>
        <mxCell id="p5apBsh6s3tMoG4SB-OD-12" value="" style="edgeStyle=elbowEdgeStyle;fontSize=12;html=1;endArrow=ERzeroToMany;startArrow=ERmandOne;rounded=0;exitX=0.25;exitY=1;exitDx=0;exitDy=0;entryX=0.554;entryY=1.031;entryDx=0;entryDy=0;elbow=vertical;entryPerimeter=0;" edge="1" parent="1" source="p5apBsh6s3tMoG4SB-OD-9" target="P8IBvrmL_pghqHeqKu2c-7">
          <mxGeometry width="100" height="100" relative="1" as="geometry">
            <mxPoint x="410" y="730" as="sourcePoint" />
            <mxPoint x="120" y="715" as="targetPoint" />
            <Array as="points">
              <mxPoint x="310" y="800" />
            </Array>
          </mxGeometry>
        </mxCell>
        <mxCell id="p5apBsh6s3tMoG4SB-OD-13" value="Принадлежит" style="edgeLabel;html=1;align=center;verticalAlign=middle;resizable=0;points=[];" vertex="1" connectable="0" parent="p5apBsh6s3tMoG4SB-OD-12">
          <mxGeometry x="-0.0896" relative="1" as="geometry">
            <mxPoint as="offset" />
          </mxGeometry>
        </mxCell>
        <mxCell id="4dfTiyged0TNW2fyMT5c-2" value="Тип устройства" style="swimlane;childLayout=stackLayout;horizontal=1;startSize=30;horizontalStack=0;rounded=1;fontSize=14;fontStyle=0;strokeWidth=2;resizeParent=0;resizeLast=1;shadow=0;dashed=0;align=center;fillColor=#FFFFFF;" vertex="1" parent="1">
          <mxGeometry x="610" y="520" width="160" height="70" as="geometry" />
        </mxCell>
        <mxCell id="4dfTiyged0TNW2fyMT5c-3" value="* Номер типа устройства&#xa;Название типа устройства" style="align=left;strokeColor=none;fillColor=none;spacingLeft=4;fontSize=12;verticalAlign=top;resizable=0;rotatable=0;part=1;" vertex="1" parent="4dfTiyged0TNW2fyMT5c-2">
          <mxGeometry y="30" width="160" height="40" as="geometry" />
        </mxCell>
        <mxCell id="4dfTiyged0TNW2fyMT5c-4" value="" style="edgeStyle=elbowEdgeStyle;fontSize=12;html=1;endArrow=ERzeroToMany;startArrow=ERmandOne;rounded=0;exitX=0;exitY=0.5;exitDx=0;exitDy=0;entryX=0.01;entryY=0.912;entryDx=0;entryDy=0;entryPerimeter=0;" edge="1" parent="1" source="4dfTiyged0TNW2fyMT5c-3" target="P8IBvrmL_pghqHeqKu2c-9">
          <mxGeometry width="100" height="100" relative="1" as="geometry">
            <mxPoint x="570" y="500" as="sourcePoint" />
            <mxPoint x="570" y="687.5" as="targetPoint" />
            <Array as="points">
              <mxPoint x="580" y="510" />
              <mxPoint x="540" y="532.5" />
              <mxPoint x="442.0799999999999" y="422.5" />
            </Array>
          </mxGeometry>
        </mxCell>
        <mxCell id="4dfTiyged0TNW2fyMT5c-5" value="Принадлежит" style="edgeLabel;html=1;align=center;verticalAlign=middle;resizable=0;points=[];" vertex="1" connectable="0" parent="4dfTiyged0TNW2fyMT5c-4">
          <mxGeometry x="-0.0896" relative="1" as="geometry">
            <mxPoint y="-18" as="offset" />
          </mxGeometry>
        </mxCell>
      </root>
    </mxGraphModel>
  </diagram>
</mxfile>
